<?xml version="1.0" encoding="UTF-8" standalone="no"?>
<svg
   id="Layer_1"
   data-name="Layer 1"
   viewBox="0 0 135.97945 111.36238"
   width="135.97945"
   height="111.36238"
   version="1.1"
   sodipodi:docname="k3s.svg"
   inkscape:export-filename="/home/mostafa/portfolio/tw0-face/static/tools/k3s.png"
   inkscape:export-xdpi="96"
   inkscape:export-ydpi="96"
   inkscape:version="1.1.2 (0a00cf5339, 2022-02-04)"
   xmlns:inkscape="http://www.inkscape.org/namespaces/inkscape"
   xmlns:sodipodi="http://sodipodi.sourceforge.net/DTD/sodipodi-0.dtd"
   xmlns="http://www.w3.org/2000/svg"
   xmlns:svg="http://www.w3.org/2000/svg">
  <sodipodi:namedview
     id="namedview17"
     pagecolor="#ffffff"
     bordercolor="#666666"
     borderopacity="1.0"
     inkscape:pageshadow="2"
     inkscape:pageopacity="0.0"
     inkscape:pagecheckerboard="0"
     showgrid="false"
     inkscape:zoom="4.329005"
     inkscape:cx="143.56648"
     inkscape:cy="55.786491"
     inkscape:window-width="1920"
     inkscape:window-height="1013"
     inkscape:window-x="0"
     inkscape:window-y="31"
     inkscape:window-maximized="1"
     inkscape:current-layer="Layer_1" />
  <defs
     id="defs4">
    <style
       id="style2">.cls-1{fill:#384745;}.cls-2{fill:#ffc61c;}</style>
  </defs>
  <title
     id="title6">sub-project-brand-logo-variants</title>
  <path
     class="cls-2"
     d="M 121.58689,0 H 14.39255 A 14.43487,14.43487 0 0 0 0,14.39247 v 82.57744 a 14.43487,14.43487 0 0 0 14.39255,14.39247 H 121.58689 A 14.43487,14.43487 0 0 0 135.97944,96.96991 V 14.39247 A 14.43487,14.43487 0 0 0 121.58689,0 Z M 57.45811,80.98065 31.29766,96.18344 A 6.9999492,6.9999492 0 1 1 24.26348,84.079 L 50.42393,68.87626 a 6.99993,6.99993 0 1 1 7.03418,12.10439 z M 67.74961,57.81844 H 67.71816 A 6.99967,6.99967 0 0 1 60.74893,50.788 l 0.13125,-30.13725 a 7.00056,7.00056 0 0 1 6.99931,-6.96958 h 0.03145 a 6.99991,6.99991 0 0 1 6.96924,7.03042 l -0.13125,30.13725 a 7.00056,7.00056 0 0 1 -6.99932,6.9696 z m 46.2875,35.81006 A 6.997,6.997 0 0 1 104.475,96.19061 L 78.27627,81.06473 a 6.99994,6.99994 0 1 1 7,-12.12421 L 111.475,84.06639 a 6.99956,6.99956 0 0 1 2.56211,9.56211 z"
     id="path14" />
</svg>
